<svg width="131" height="30" viewBox="0 0 131 30" fill="none" xmlns="http://www.w3.org/2000/svg">
<g clip-path="url(#clip0_425_17999)">
<path d="M130.781 -0.318481H0V30H130.781V-0.318481Z" fill="#FFFF00"/>
<path d="M63.0366 6.16113H61.5868L60.4963 7.24649L60.4832 17.7296L48.8594 6.19363H47.7754L46.6848 7.27898V22.435L47.7754 23.5203H49.2316L50.3156 22.435V12.6343L61.5868 23.5203H63.0366L64.1271 22.435V7.24649L63.0366 6.16113Z" fill="#020202"/>
<path d="M22.8625 6.16113H6.51074V23.5203H22.8625L23.953 22.435V18.4575L20.3157 14.844L23.953 11.224V7.24649L22.8625 6.16113ZM20.3222 19.8938H10.1416V16.6572H17.4097L20.3222 19.5493V19.8938V19.8938ZM20.3222 10.1386L17.4163 13.0307H10.1416V9.79415H20.3157V10.1386H20.3222Z" fill="#020202"/>
<path d="M83.9333 6.16113H68.6721L67.5815 7.24649V22.435L68.6721 23.5203H83.9333L85.0238 22.435V7.24649L83.9333 6.16113ZM81.393 19.9068H71.2189V10.1386V9.77465H81.393V19.9068Z" fill="#020202"/>
<path d="M120.64 13.1932L111.915 13.2062L110.466 11.7634V11.224L111.915 9.78115L122.455 9.79415L123.546 8.69579V7.24649L122.455 6.16113H110.466L106.828 9.78115V13.1022L110.1 16.4818L119.184 16.4688L120.64 17.9116V18.451L119.19 19.8938L107.919 19.8808L106.828 20.9792V22.4285L107.919 23.5138H120.64L124.271 19.9068V16.6507L120.64 13.1932Z" fill="#020202"/>
<path d="M105.006 8.69579V7.24649L103.916 6.16113H102.46L96.2884 12.3093L90.1108 6.16113H88.6611L87.5706 7.24649V8.69579L93.7482 14.8375L87.5706 20.9922V22.435L88.6611 23.5138H90.1043L96.2884 17.3656L102.466 23.5138H103.916L105.006 22.435V20.9922L98.8287 14.8375L105.006 8.69579Z" fill="#020202"/>
<path d="M35.0544 5.40076C29.8171 5.40076 25.5659 9.62519 25.5659 14.844C25.5659 20.0563 29.8106 24.2872 35.0544 24.2872C40.2916 24.2872 44.5428 20.0628 44.5428 14.844C44.5428 9.62519 40.2982 5.40076 35.0544 5.40076ZM35.0544 20.3878C31.9786 20.3878 29.4841 17.9051 29.4841 14.844C29.4841 11.7829 31.9786 9.30024 35.0544 9.30024C38.1301 9.30024 40.6247 11.7829 40.6247 14.844C40.6247 17.9051 38.1301 20.3878 35.0544 20.3878Z" fill="#020202"/>
</g>
<defs>
<clipPath id="clip0_425_17999">
<rect width="130.781" height="30" fill="white"/>
</clipPath>
</defs>
</svg>
